# xmcd
#
# Track frame offsets:
#	150
#	9177
#	23395
#	31583
#	40737
#	59965
#	62765
#	72754
#	83341
#	90418
#	102107
#	117372
#	127462
#	139431
#	153177
#	162294
#	176115
#	188264
#	200648
#	220026
#
# Disc length: 3084 seconds
#
# Revision: 0
# Processed by: cddbd v1.5.2PL0 Copyright (c) Steve Scherf et al.
# Submitted via: audiograbber 1.83.01
#
DISCID=030c0a14
DTITLE=Various Artist - Western-Hits Vol. 15 [CD 1)
DYEAR=1999
DGENRE=Country
TTITLE0=Willie Nelson - Building Heartaches [mono]
TTITLE1=David Houston and Barbara Mandrell - Almost Persuaded
TTITLE2=Danny Davis and The Nashville Brass - Mountain Dew [live]
TTITLE3=George Jones - Jonesy [mono]
TTITLE4=Barbara Fairchild - Drifter
TTITLE5=Bob Wills and His Texas Playboys - Bob's First Fiddle Tune [mono]
TTITLE6=Carl Perkins - Maybelline
TTITLE7=Conway Twitty - It's Only Make Believe
TTITLE8=George Jones - Ways Of The World [mono]
TTITLE9=Don Williams and The Pozo Seco Singers - Follow Me Back To Louisville
TTITLE10=Ferlin Husky - Phantom 309
TTITLE11=Patsy Cline - Three Cigarettes In An Ash Tray [mono]
TTITLE12=Porter Wagoner - I'll Start Tomorrow
TTITLE13=Razzy Bailey - Rockin' In The Parking Lot
TTITLE14=Mickey Gilley - I'm Gonna Put My Love In The Want Ads [mono]
TTITLE15=Merle Haggard - That's The Way Love Goes [live]
TTITLE16=Johnny Paycheck - Song And Dance Man
TTITLE17=Stonewall Jackson - Love Gets All Over Me
TTITLE18=Barbara Fairchild - Too Old For This Dress
TTITLE19=Willie Nelson - Touch Me [mono]
EXTD=
EXTT0=
EXTT1=
EXTT2=
EXTT3=
EXTT4=
EXTT5=
EXTT6=
EXTT7=
EXTT8=
EXTT9=
EXTT10=
EXTT11=
EXTT12=
EXTT13=
EXTT14=
EXTT15=
EXTT16=
EXTT17=
EXTT18=
EXTT19=
PLAYORDER=
